<svg xmlns="http://www.w3.org/2000/svg" viewBox="0 0 120 120" fill="none">
  <defs>
    <linearGradient id="bg" x1="0" y1="0" x2="120" y2="120" gradientUnits="userSpaceOnUse">
      <stop offset="0%" stop-color="#166534"/>
      <stop offset="50%" stop-color="#15803d"/>
      <stop offset="100%" stop-color="#16a34a"/>
    </linearGradient>
  </defs>
  <!-- Rounded square background -->
  <rect width="120" height="120" rx="24" fill="url(#bg)"/>
  <!-- Leaf shape -->
  <path d="M60 25C45 35 30 55 35 80C40 95 50 100 60 95C70 100 80 95 85 80C90 55 75 35 60 25Z" fill="white" opacity="0.9"/>
  <!-- Leaf vein -->
  <path d="M60 30V85" stroke="#166534" stroke-width="2.5" stroke-linecap="round" opacity="0.5"/>
  <path d="M60 50L48 40" stroke="#166534" stroke-width="1.5" stroke-linecap="round" opacity="0.4"/>
  <path d="M60 50L72 40" stroke="#166534" stroke-width="1.5" stroke-linecap="round" opacity="0.4"/>
  <path d="M60 60L45 52" stroke="#166534" stroke-width="1.5" stroke-linecap="round" opacity="0.4"/>
  <path d="M60 60L75 52" stroke="#166534" stroke-width="1.5" stroke-linecap="round" opacity="0.4"/>
  <path d="M60 70L48 64" stroke="#166534" stroke-width="1.5" stroke-linecap="round" opacity="0.4"/>
  <path d="M60 70L72 64" stroke="#166534" stroke-width="1.5" stroke-linecap="round" opacity="0.4"/>
</svg>
